<svg id="Layer_1" data-name="Layer 1" xmlns="http://www.w3.org/2000/svg" viewBox="0 0 745.66 198.75"><defs><style>.cls-2{fill:#231f20}</style><clipPath id="clip-path" transform="translate(-29.34 -200.15)"><path d="M111.33 234c-.46-4.57 10.07-6.46 12-5.82 1.43.49 5 1.23 8 3.42 2.68 2 4.86 3.12 5.54 2.81 9.48-4.38 14.49-2.35 17.9 5.18 1.11 2.46 4.42 3.07 4.56 3 5.42-1.3 12.23-.23 12.32 5.52-.93 7.91-10.74 7-13.64-2.79a32.2 32.2 0 0 0-5.23-2.1c-1.63-.5-10.82 8.43-18.15-5.84-.14-.28-3-1.15-5.7-1.58-1.83-.3-15.29 8.46-17.57-1.84zm-29.19 17.32c2 7.92 12.61-1.61 14.44-1.32 2.67.43 4.27 10.22 4.41 10.49 2.26 4.41 9.15-.46 12.87-1.86 1.23-.47 4.23-.58 4.88 1.6 5.26 17.69 15.87 11.43 18.91 10.68 2.5-.62 4.72 2.73 4.74 2.84 2.65 13.3 15.33 12.23 16.26 4.31.35-10-8.32-10.26-13.74-9-.14 0-5-1.67-5.22-3-2.1-11.69-7.93-13.18-17.85-9.36a3 3 0 0 1-3.6-1.73c-1.71-3.83-3.53-10.66-6.35-10.93-8.22-.8-9.22 5.13-11.9 3.17-3-2.19-1.35-7.4-5.06-7.73-3.36-.31-13.25 7.25-12.79 11.82zm-5.89 14.11c-.07.94 1.24 5.11 2.5 4.41 13.68-7.6 16.49-1.63 16.9 7.32.11 2.39 4 3.68 4.14 3.6 9.72-7 21.36.52 17.62 10.17-4.91 12.07-19.41 5.6-19.56-6.17 0-.09-3.21-3.23-5.39-2.55-3.46 1.07-11.37 8.26-14.46-7.61a2.35 2.35 0 0 0-3.5-.86c-20.93 15.15 3.33-29.94 1.75-8.31zM183 255.76a3.89 3.89 0 1 1-5.12-2 3.9 3.9 0 0 1 5.12 2zm5.48 39.24a3.89 3.89 0 1 1-5.11-2 3.89 3.89 0 0 1 5.11 2zm-13.57-10a6.1 6.1 0 1 1-8-3.16 6.09 6.09 0 0 1 8 3.16zm-105 45.54c-3.4 2.46 1.53 10.69 3.09 11.61 1.18.69 3.79 2.68 7 3.42 2.92.67 5 1.47 5.18 2.12 2.61 9 7 11.25 14.09 9.12 2.33-.69 4.7 1.2 4.76 1.32 2.31 4.45 7.07 8.45 11 5.12 4.84-5.31-1.55-11.46-10-7.63a29.85 29.85 0 0 1-4.51-2.33c-1.31-.81-.66-12.34-14.7-8.9a18.52 18.52 0 0 1-4.44-2.95c-1.28-1.07-3.26-15.4-11.62-10.87zm-7.15-40.14c7.42-2.75 5.69 10.9 6.94 12.19 1.81 1.88 10.47-2.26 10.76-2.3 4.75-.65 4.7 7.52 5.63 11.25.31 1.23 1.89 3.67 4 3 16.94-5.6 17.84 6.28 18.92 9.11.89 2.32 4.78 2.24 4.88 2.19 12-5.25 18.18 5.41 12.41 10.53-7.71 5.78-12.74-.94-14.71-6 0-.13-4.07-3-5.28-2.46-10.44 4.78-14.85 1-17.3-9a2.85 2.85 0 0 0-3.36-1.9c-4 .77-10.42 3.09-12.19 1-5.18-6.09-1-10.16-4.06-11.2-3.4-1.17-6.62 3-8.93.26-2.1-2.5-1.57-14.53 2.31-16.69zM125 367.12a3.29 3.29 0 1 1 2.58-3.87 3.29 3.29 0 0 1-2.58 3.87zm29.41-15.66a3.89 3.89 0 1 0-4.58-3 3.89 3.89 0 0 0 4.58 3zm-13.27-5.53a6.09 6.09 0 1 0-7.17-4.78 6.11 6.11 0 0 0 7.17 4.78zm.49-40.46c.21 1 5.23 2.82 5.33 2.8 3.92-.94 10.43-2.58 10.34 5.88-.67 5.73-10.25 7.12-12.17-2.52 0-.07-3.21-3.26-5-2.66-16.43 5.53-18.39-5.38-14.4-11.46 4.37-6.64 12.94-6.08 15.88 8zm31.13 13.67a4.7 4.7 0 1 1-6.19-2.44 4.69 4.69 0 0 1 6.19 2.44zm11.64 9.07a3.69 3.69 0 1 1-4.86-1.92 3.68 3.68 0 0 1 4.86 1.92z" clip-rule="evenodd" fill="#231f20"/></clipPath></defs><path class="cls-2" d="M241.86 243.26v9.22h-26.4v10.7h23.72v9.23h-23.72v10.91h27.17v9.22h-38.3v-49.28zM283.89 283h-22.81l-3.87 9.57h-11.48l21.41-49.28h11.47l21.05 49.28h-11.9zm-3.59-9l-7.74-19.15-7.82 19.15zm54.78 18.54l-7.81-14.08h-11.34v14.08h-11.12v-49.28h21.4c12.88 0 20.21 6.2 20.21 17.11 0 7.6-3.24 13.09-9.23 15.91l10.49 16.26zm-19.15-23.37h10.28c6.12 0 9.64-2.82 9.64-8.45s-3.52-8.24-9.64-8.24h-10.28zm76.18-25.91v9.43H377v39.85h-11.08v-39.85h-15v-9.43zm17.11 0v20.56h22.32v-20.56h11.13v49.28h-11.13v-19.43h-22.32v19.43H398.1v-49.28zm81.78 5.28c-6.34 0-10.49 2.53-10.49 6.76 0 12.81 27.74 6.12 27.67 24 0 8.16-7.26 13.44-17.82 13.44a28.12 28.12 0 0 1-18.87-7.53l2.54-4.86a24.74 24.74 0 0 0 16.4 6.9c7.11 0 11.55-2.88 11.55-7.67.07-13.17-27.67-6.2-27.67-23.87 0-7.74 6.83-12.67 17-12.67a29.2 29.2 0 0 1 15.69 4.58l-2.4 5a26 26 0 0 0-13.6-4.08zm49.82-.28a19.61 19.61 0 1 0 0 39.21 21.48 21.48 0 0 0 14.57-5.91l3.45 3.73a27.07 27.07 0 0 1-18.31 7.46c-14.22 0-25.48-11-25.48-24.92s11.4-24.71 25.7-24.71a26.63 26.63 0 0 1 18 7.18l-3.38 4.08a20.93 20.93 0 0 0-14.55-6.12zm33.79-5v49.28H569v-49.28zm48.39 0v5.21h-27.83V265H620v5.14h-24.83v17.18h28.73v5.21h-34.36v-49.27zm18.22 0l29.57 40.06v-40.06h5.56v49.28h-5.77l-29.57-40v40h-5.63v-49.28zm71.25 5a19.61 19.61 0 1 0 0 39.21 21.52 21.52 0 0 0 14.58-5.91l3.45 3.73a27.07 27.07 0 0 1-18.31 7.46c-14.22 0-25.48-11-25.48-24.92s11.4-24.71 25.69-24.71a26.64 26.64 0 0 1 18 7.18l-3.38 4.08a21 21 0 0 0-14.55-6.12zm61.61-5v5.21h-27.81V265h24.85v5.14h-24.85v17.18H775v5.21h-34.36v-49.27zM236.86 344h-22.81l-3.87 9.57H198.7l21.4-49.28h11.48l21 49.28h-11.9zm-3.59-8.94l-7.75-19.15-7.81 19.15zm34.64-30.78L291.85 336v-31.72h10.56v49.28h-10.14L268.4 322v31.61h-10.63v-49.33zM345.78 344H323l-3.87 9.57h-11.51L329 304.28h11.5l21.05 49.28h-11.9zm-3.59-8.94l-7.74-19.15-7.82 19.15zm35.63-30.78v39.57h21.12v9.71H366.7v-49.28zm51.47 33.37v15.91h-11.13v-15.63l-18.23-33.65h11.19l12.6 22.11 12.33-22.11h11.19zm59.49-33.37v9.44h-15.07v39.84h-11.12v-39.84h-15v-9.44zm17.11 0v49.28h-11.12v-49.28zm33.8 9.3a15.17 15.17 0 0 0 0 30.34c4.43 0 9.29-2.25 12.81-5.77l6.55 7.11c-5.21 5.35-12.75 8.8-19.93 8.8-14.71 0-25.83-10.92-25.83-25.21s11.33-24.92 26.26-24.92A28 28 0 0 1 559 312.1l-6.5 7.9c-3.38-3.89-8.24-6.42-12.81-6.42zm43.09-.29c-3.73 0-6.27 1.34-6.27 4 0 9.08 26.26 4 26.19 21.75 0 9.65-8.38 14.86-19.29 14.86a34.56 34.56 0 0 1-21.75-7.82l4.43-9.08c5.07 4.51 12.25 7.39 17.46 7.39 4.58 0 7.32-1.69 7.32-4.71 0-9.3-26.26-3.88-26.26-21.34 0-8.94 7.68-14.57 19.08-14.57a35.23 35.23 0 0 1 18.73 5.35l-4.3 9.22c-5.2-3.08-11.4-5.05-15.34-5.05z" transform="translate(-29.34 -200.15)"/><path d="M111.33 234c-.46-4.57 10.07-6.46 12-5.82 1.43.49 5 1.23 8 3.42 2.68 2 4.86 3.12 5.54 2.81 9.48-4.38 14.49-2.35 17.9 5.18 1.11 2.46 4.42 3.07 4.56 3 5.42-1.3 12.23-.23 12.32 5.52-.93 7.91-10.74 7-13.64-2.79a32.2 32.2 0 0 0-5.23-2.1c-1.63-.5-10.82 8.43-18.15-5.84-.14-.28-3-1.15-5.7-1.58-1.83-.3-15.29 8.46-17.57-1.84zm-29.19 17.32c2 7.92 12.61-1.61 14.44-1.32 2.67.43 4.27 10.22 4.41 10.49 2.26 4.41 9.15-.46 12.87-1.86 1.23-.47 4.23-.58 4.88 1.6 5.26 17.69 15.87 11.43 18.91 10.68 2.5-.62 4.72 2.73 4.74 2.84 2.65 13.3 15.33 12.23 16.26 4.31.35-10-8.32-10.26-13.74-9-.14 0-5-1.67-5.22-3-2.1-11.69-7.93-13.18-17.85-9.36a3 3 0 0 1-3.6-1.73c-1.71-3.83-3.53-10.66-6.35-10.93-8.22-.8-9.22 5.13-11.9 3.17-3-2.19-1.35-7.4-5.06-7.73-3.36-.31-13.25 7.25-12.79 11.82zm-5.89 14.11c-.07.94 1.24 5.11 2.5 4.41 13.68-7.6 16.49-1.63 16.9 7.32.11 2.39 4 3.68 4.14 3.6 9.72-7 21.36.52 17.62 10.17-4.91 12.07-19.41 5.6-19.56-6.17 0-.09-3.21-3.23-5.39-2.55-3.46 1.07-11.37 8.26-14.46-7.61a2.35 2.35 0 0 0-3.5-.86c-20.93 15.15 3.33-29.94 1.75-8.31zM183 255.76a3.89 3.89 0 1 1-5.12-2 3.9 3.9 0 0 1 5.12 2zm5.48 39.24a3.89 3.89 0 1 1-5.11-2 3.89 3.89 0 0 1 5.11 2zm-13.57-10a6.1 6.1 0 1 1-8-3.16 6.09 6.09 0 0 1 8 3.16zm-105 45.54c-3.4 2.46 1.53 10.69 3.09 11.61 1.18.69 3.79 2.68 7 3.42 2.92.67 5 1.47 5.18 2.12 2.61 9 7 11.25 14.09 9.12 2.33-.69 4.7 1.2 4.76 1.32 2.31 4.45 7.07 8.45 11 5.12 4.84-5.31-1.55-11.46-10-7.63a29.85 29.85 0 0 1-4.51-2.33c-1.31-.81-.66-12.34-14.7-8.9a18.52 18.52 0 0 1-4.44-2.95c-1.28-1.07-3.26-15.4-11.62-10.87zm-7.15-40.14c7.42-2.75 5.69 10.9 6.94 12.19 1.81 1.88 10.47-2.26 10.76-2.3 4.75-.65 4.7 7.52 5.63 11.25.31 1.23 1.89 3.67 4 3 16.94-5.6 17.84 6.28 18.92 9.11.89 2.32 4.78 2.24 4.88 2.19 12-5.25 18.18 5.41 12.41 10.53-7.71 5.78-12.74-.94-14.71-6 0-.13-4.07-3-5.28-2.46-10.44 4.78-14.85 1-17.3-9a2.85 2.85 0 0 0-3.36-1.9c-4 .77-10.42 3.09-12.19 1-5.18-6.09-1-10.16-4.06-11.2-3.4-1.17-6.62 3-8.93.26-2.1-2.5-1.57-14.53 2.31-16.69zM125 367.12a3.29 3.29 0 1 1 2.58-3.87 3.29 3.29 0 0 1-2.58 3.87zm29.41-15.66a3.89 3.89 0 1 0-4.58-3 3.89 3.89 0 0 0 4.58 3zm-13.27-5.53a6.09 6.09 0 1 0-7.17-4.78 6.11 6.11 0 0 0 7.17 4.78zm.49-40.46c.21 1 5.23 2.82 5.33 2.8 3.92-.94 10.43-2.58 10.34 5.88-.67 5.73-10.25 7.12-12.17-2.52 0-.07-3.21-3.26-5-2.66-16.43 5.53-18.39-5.38-14.4-11.46 4.37-6.64 12.94-6.08 15.88 8zm31.13 13.67a4.7 4.7 0 1 1-6.19-2.44 4.69 4.69 0 0 1 6.19 2.44zm11.64 9.07a3.69 3.69 0 1 1-4.86-1.92 3.68 3.68 0 0 1 4.86 1.92z" transform="translate(-29.34 -200.15)" fill-rule="evenodd" fill="#231f20"/><g clip-path="url(#clip-path)"><path class="cls-2" transform="rotate(-57.17 -126.895 188.854)" d="M.73 257.51h141.4v8.97H.73z"/><path class="cls-2" transform="rotate(-57.18 -122.964 191.346)" d="M4.63 264.02h141.4v.99H4.63z"/><path class="cls-2" transform="rotate(-57.18 -122.41 191.707)" d="M5.19 264.38h141.4v.99H5.19z"/><path class="cls-2" transform="rotate(-57.17 -121.906 192.06)" d="M5.75 264.74h141.4v.99H5.75z"/><path class="cls-2" transform="rotate(-57.18 -121.3 192.42)" d="M6.3 265.1h141.4v.99H6.3z"/><path class="cls-2" transform="rotate(-57.17 -120.785 192.778)" d="M6.86 265.45h141.4v.99H6.86z"/><path class="cls-2" transform="rotate(-57.18 -120.185 193.146)" d="M7.41 265.81h141.4v.99H7.41z"/><path class="cls-2" transform="rotate(-57.3 -119.971 193.1)" d="M7.97 266.17h141.4v.99H7.97z"/><path class="cls-2" transform="rotate(-57.17 -119.108 193.87)" d="M8.52 266.53h141.4v.99H8.52z"/><path class="cls-2" transform="rotate(-57.17 -118.545 194.237)" d="M9.08 266.89h141.4v.99H9.08z"/><path class="cls-2" transform="rotate(-57.17 -117.987 194.588)" d="M9.64 267.25h141.4v.99H9.64z"/><path class="cls-2" transform="rotate(-57.17 -117.434 194.95)" d="M10.19 267.6h141.4v.99H10.19z"/><path class="cls-2" transform="rotate(-57.18 -116.848 195.298)" d="M10.75 267.96h141.4v.99H10.75z"/><path class="cls-2" transform="rotate(-57.18 -116.295 195.659)" d="M11.3 268.32h141.4v.99H11.3z"/><path class="cls-2" transform="rotate(-57.18 -115.737 196.01)" d="M11.86 268.68h141.4v.99H11.86z"/><path class="cls-2" transform="rotate(-57.17 -115.217 196.384)" d="M12.41 269.04h141.4v.99H12.41z"/><path class="cls-2" transform="rotate(-57.16 -114.71 196.738)" d="M12.97 269.4h141.4v.99H12.97z"/><path class="cls-2" transform="rotate(-57.3 -114.428 196.694)" d="M13.53 269.76h141.4v.99H13.53z"/><path class="cls-2" transform="rotate(-57.16 -113.598 197.45)" d="M14.08 270.11h141.4v.99H14.08z"/><path class="cls-2" transform="rotate(-57.3 -113.283 197.452)" d="M14.64 270.47h141.4v.99H14.64z"/><path class="cls-2" transform="rotate(-57.18 -112.4 198.162)" d="M15.19 270.83h141.4v.99H15.19z"/><path class="cls-2" transform="rotate(-57.18 -111.847 198.523)" d="M15.75 271.19h141.4v.99H15.75z"/><path class="cls-2" transform="rotate(-57.18 -111.294 198.884)" d="M16.3 271.55h141.4v.99H16.3z"/><path class="cls-2" transform="rotate(-57.18 -110.736 199.236)" d="M16.86 271.91h141.4v.99H16.86z"/><path class="cls-2" transform="rotate(-57.18 -110.183 199.597)" d="M17.42 272.26h141.4v.99H17.42z"/><path class="cls-2" transform="rotate(-57.17 -109.656 199.96)" d="M17.97 272.62h141.4v.99H17.97z"/><path class="cls-2" transform="rotate(-57.18 -109.062 200.314)" d="M18.53 272.98h141.4v.99H18.53z"/><path class="cls-2" transform="rotate(-57.18 -108.519 200.67)" d="M19.08 273.34h141.4v.99H19.08z"/><path class="cls-2" transform="rotate(-57.18 -107.956 201.036)" d="M19.64 273.7h141.4v.99H19.64z"/><path class="cls-2" transform="rotate(-57.18 -107.398 201.388)" d="M20.19 274.06h141.4v.99H20.19z"/><path class="cls-2" transform="rotate(-57.18 -106.845 201.749)" d="M20.75 274.42h141.4v.99H20.75z"/><path class="cls-2" transform="rotate(-57.18 -106.292 202.11)" d="M21.31 274.77h141.4v.99H21.31z"/><path class="cls-2" transform="rotate(-57.17 -105.765 202.474)" d="M21.86 275.13h141.4v.99H21.86z"/><path class="cls-2" transform="rotate(-57.17 -105.212 202.834)" d="M22.42 275.49h141.4v.99H22.42z"/><path class="cls-2" transform="rotate(-57.17 -104.66 203.195)" d="M22.97 275.85h141.4v.99H22.97z"/><path class="cls-2" transform="rotate(-57.17 -104.11 203.542)" d="M23.53 276.21h141.4v.99H23.53z"/><path class="cls-2" transform="rotate(-57.18 -103.518 203.895)" d="M24.08 276.57h141.4v.99H24.08z"/><path class="cls-2" transform="rotate(-57.18 -102.965 204.256)" d="M24.64 276.92h141.4v.99H24.64z"/><path class="cls-2" transform="rotate(-57.18 -102.397 204.613)" d="M25.2 277.28h141.4v.99H25.2z"/><path class="cls-2" transform="rotate(-57.16 -101.923 204.989)" d="M25.75 277.64h141.4v.99H25.75z"/><path class="cls-2" transform="rotate(-57.17 -101.33 205.342)" d="M26.31 278h141.4v.99H26.31z"/><path class="cls-2" transform="rotate(-57.16 -100.812 205.702)" d="M26.86 278.36h141.4v.99H26.86z"/><path class="cls-2" transform="rotate(-57.17 -100.22 206.055)" d="M27.42 278.72h141.4v.99H27.42z"/><path class="cls-2" transform="rotate(-57.18 -99.632 206.394)" d="M27.97 279.08h141.4v.99H27.97z"/><path class="cls-2" transform="rotate(-57.18 -99.07 206.76)" d="M28.53 279.43h141.4v.99H28.53z"/><path class="cls-2" transform="rotate(-57.18 -98.516 207.12)" d="M29.09 279.79h141.4v.99H29.09z"/><path class="cls-2" transform="rotate(-57.18 -97.954 207.487)" d="M29.64 280.15h141.4v.99H29.64z"/><path class="cls-2" transform="rotate(-57.18 -97.396 207.838)" d="M30.2 280.51h141.4v.99H30.2z"/><path class="cls-2" transform="rotate(-57.18 -96.843 208.2)" d="M30.75 280.87h141.4v.99H30.75z"/><path class="cls-2" transform="rotate(-57.17 -96.328 208.568)" d="M31.31 281.23h141.4v.99H31.31z"/><path class="cls-2" transform="rotate(-57.18 -95.732 208.912)" d="M31.86 281.58h141.4v.99H31.86z"/><path class="cls-2" transform="rotate(-57.18 -95.18 209.273)" d="M32.42 281.94h141.4v.99H32.42z"/><path class="cls-2" transform="rotate(-57.17 -94.668 209.627)" d="M32.97 282.3h141.4v.99H32.97z"/><path class="cls-2" transform="rotate(-57.18 -94.068 209.985)" d="M33.53 282.66h141.4v.99H33.53z"/><path class="cls-2" transform="rotate(-57.17 -93.562 210.349)" d="M34.09 283.02h141.4v.99H34.09z"/><path class="cls-2" transform="rotate(-57.18 -92.953 210.712)" d="M34.64 283.38h141.4v.99H34.64z"/><path class="cls-2" transform="rotate(-57.18 -92.395 211.064)" d="M35.2 283.74h141.4v.99H35.2z"/><path class="cls-2" transform="rotate(-57.17 -91.87 211.437)" d="M35.75 284.09h141.4v.99H35.75z"/><path class="cls-2" transform="rotate(-57.17 -91.317 211.798)" d="M36.31 284.45h141.4v.99H36.31z"/><path class="cls-2" transform="rotate(-57.3 -91.1 211.814)" d="M36.87 284.81h141.4v.99H36.87z"/><path class="cls-2" transform="rotate(-57.18 -90.178 212.498)" d="M37.42 285.17h141.4v.99H37.42z"/><path class="cls-2" transform="rotate(-57.3 -89.997 212.538)" d="M37.98 285.53h141.4v.99H37.98z"/><path class="cls-2" transform="rotate(-57.18 -89.063 213.225)" d="M38.53 285.89h141.4v.99H38.53z"/><path class="cls-2" transform="rotate(-57.18 -88.505 213.576)" d="M39.09 286.25h141.4v.99H39.09z"/><path class="cls-2" transform="rotate(-57.16 -88.029 213.939)" d="M39.64 286.6h141.4v.99H39.64z"/><path class="cls-2" transform="rotate(-57.17 -87.426 214.31)" d="M40.2 286.96h141.4v.99H40.2z"/><path class="cls-2" transform="rotate(-57.16 -86.922 214.66)" d="M40.75 287.32h141.4v.99H40.75z"/><path class="cls-2" transform="rotate(-57.18 -86.288 215.01)" d="M41.31 287.68h141.4v.99H41.31z"/><path class="cls-2" transform="rotate(-57.17 -85.775 215.365)" d="M41.87 288.04h141.4v.99H41.87z"/><path class="cls-2" transform="rotate(-57.18 -85.168 215.728)" d="M42.42 288.4h141.4v.99H42.42z"/><path class="cls-2" transform="rotate(-57.18 -84.615 216.09)" d="M42.98 288.75h141.4v.99H42.98z"/><path class="cls-2" transform="rotate(-57.18 -84.062 216.45)" d="M43.53 289.11h141.4v.99H43.53z"/><path class="cls-2" transform="rotate(-57.17 -83.53 216.815)" d="M44.09 289.47h141.4v.99H44.09z"/><path class="cls-2" transform="rotate(-57.17 -82.986 217.17)" d="M44.64 289.83h141.4v.99H44.64z"/><path class="cls-2" transform="rotate(-57.18 -82.398 217.524)" d="M45.2 290.19h141.4v.99H45.2z"/><path class="cls-2" transform="rotate(-57.18 -81.84 217.875)" d="M45.76 290.55h141.4v.99H45.76z"/><path class="cls-2" transform="rotate(-57.3 -81.666 217.933)" d="M46.31 290.91h141.4v.99H46.31z"/><path class="cls-2" transform="rotate(-57.18 -80.725 218.602)" d="M46.87 291.26h141.4v.99H46.87z"/><path class="cls-2" transform="rotate(-57.18 -80.167 218.954)" d="M47.42 291.62h141.4v.99H47.42z"/><path class="cls-2" transform="rotate(-57.18 -79.614 219.315)" d="M47.98 291.98h141.4v.99H47.98z"/><path class="cls-2" transform="rotate(-57.18 -79.06 219.675)" d="M48.54 292.34h141.4v.99H48.54z"/><path class="cls-2" transform="rotate(-57.17 -78.537 220.035)" d="M49.09 292.7h141.4v.99H49.09z"/><path class="cls-2" transform="rotate(-57.18 -77.95 220.388)" d="M49.65 293.06h141.4v.99H49.65z"/><path class="cls-2" transform="rotate(-57.18 -77.397 220.749)" d="M50.2 293.41h141.4v.99H50.2z"/><path class="cls-2" transform="rotate(-57.18 -76.839 221.1)" d="M50.76 293.77h141.4v.99H50.76z"/><path class="cls-2" transform="rotate(-57.18 -76.277 221.466)" d="M51.31 294.13h141.4v.99H51.31z"/><path class="cls-2" transform="rotate(-57.18 -75.733 221.822)" d="M51.87 294.49h141.4v.99H51.87z"/><path class="cls-2" transform="rotate(-57.18 -75.175 222.174)" d="M52.42 294.85h141.4v.99H52.42z"/><path class="cls-2" transform="rotate(-57.17 -74.646 222.548)" d="M52.98 295.21h141.4v.99H52.98z"/><path class="cls-2" transform="rotate(-57.16 -74.145 222.907)" d="M53.54 295.57h141.4v.99H53.54z"/><path class="cls-2" transform="rotate(-57.17 -73.54 223.27)" d="M54.09 295.92h141.4v.99H54.09z"/><path class="cls-2" transform="rotate(-57.17 -72.982 223.621)" d="M54.65 296.28h141.4v.99H54.65z"/><path class="cls-2" transform="rotate(-57.18 -72.396 223.974)" d="M55.2 296.64h141.4v.99H55.2z"/><path class="cls-2" transform="rotate(-57.18 -71.838 224.326)" d="M55.76 297h141.4v.99H55.76z"/><path class="cls-2" transform="rotate(-57.18 -71.285 224.687)" d="M56.31 297.36h141.4v.99H56.31z"/><path class="cls-2" transform="rotate(-57.3 -71.14 224.756)" d="M56.87 297.72h141.4v.99H56.87z"/><path class="cls-2" transform="rotate(-57.17 -70.211 225.417)" d="M57.43 298.07h141.4v.99H57.43z"/><path class="cls-2" transform="rotate(-57.17 -69.644 225.773)" d="M57.98 298.43h141.4v.99H57.98z"/><path class="cls-2" transform="rotate(-57.17 -69.09 226.134)" d="M58.54 298.79h141.4v.99H58.54z"/><path class="cls-2" transform="rotate(-57.18 -68.5 226.478)" d="M59.09 299.15h141.4v.99H59.09z"/><path class="cls-2" transform="rotate(-57.18 -67.948 226.839)" d="M59.65 299.51h141.4v.99H59.65z"/><path class="cls-2" transform="rotate(-57.18 -67.395 227.2)" d="M60.2 299.87h141.4v.99H60.2z"/><path class="cls-2" transform="rotate(-57.17 -66.887 227.55)" d="M60.76 300.23h141.4v.99H60.76z"/><path class="cls-2" transform="rotate(-57.18 -66.284 227.912)" d="M61.32 300.58h141.4v.99H61.32z"/><path class="cls-2" transform="rotate(-57.18 -65.73 228.273)" d="M61.87 300.94h141.4v.99H61.87z"/><path class="cls-2" transform="rotate(-57.3 -65.638 228.317)" d="M62.43 301.3h141.4v.99H62.43z"/><path class="cls-2" transform="rotate(-57.18 -64.61 228.99)" d="M62.98 301.66h141.4v.99H62.98z"/><path class="cls-2" transform="rotate(-57.18 -64.058 229.351)" d="M63.54 302.02h141.4v.99H63.54z"/><path class="cls-2" transform="rotate(-57.18 -63.5 229.703)" d="M64.09 302.38h141.4v.99H64.09z"/><path class="cls-2" transform="rotate(-57.18 -62.947 230.064)" d="M64.65 302.74h141.4v.99H64.65z"/><path class="cls-2" transform="rotate(-57.18 -62.394 230.425)" d="M65.21 303.09h141.4v.99H65.21z"/><path class="cls-2" transform="rotate(-57.18 -61.836 230.777)" d="M65.76 303.45h141.4v.99H65.76z"/><path class="cls-2" transform="rotate(-57.17 -61.313 231.146)" d="M66.32 303.81h141.4v.99H66.32z"/><path class="cls-2" transform="rotate(-57.3 -61.19 231.194)" d="M66.87 304.17h141.4v.99H66.87z"/><path class="cls-2" transform="rotate(-57.3 -60.697 231.511)" d="M67.43 304.53h141.4v.99H67.43z"/><path class="cls-2" transform="rotate(-57.16 -59.693 232.231)" d="M67.98 304.89h141.4v.99H67.98z"/><path class="cls-2" transform="rotate(-57.18 -59.057 232.577)" d="M68.54 305.24h141.4v.99H68.54z"/><path class="cls-2" transform="rotate(-57.18 -58.504 232.938)" d="M69.1 305.6h141.4v.99H69.1z"/><path class="cls-2" transform="rotate(-57.18 -57.946 233.29)" d="M69.65 305.96h141.4v.99H69.65z"/><path class="cls-2" transform="rotate(-57.17 -57.422 233.658)" d="M70.21 306.32h141.4v.99H70.21z"/><path class="cls-2" transform="rotate(-57.17 -56.87 234.02)" d="M70.76 306.68h141.4v.99H70.76z"/><path class="cls-2" transform="rotate(-57.17 -56.307 234.385)" d="M71.32 307.04h141.4v.99H71.32z"/><path class="cls-2" transform="rotate(-57.17 -55.749 234.737)" d="M71.87 307.4h141.4v.99H71.87z"/><path class="cls-2" transform="rotate(-57.17 -55.196 235.098)" d="M72.43 307.75h141.4v.99H72.43z"/><path class="cls-2" transform="rotate(-57.18 -54.608 235.441)" d="M72.99 308.11h141.4v.99H72.99z"/><path class="cls-2" transform="rotate(-57.18 -54.055 235.802)" d="M73.54 308.47h141.4v.99H73.54z"/><path class="cls-2" transform="rotate(-57.3 -53.945 235.9)" d="M74.1 308.83h141.4v.99H74.1z"/><path class="cls-2" transform="rotate(-57.18 -52.944 236.515)" d="M74.65 309.19h141.4v.99H74.65z"/><path class="cls-2" transform="rotate(-57.18 -52.382 236.88)" d="M75.21 309.55h141.4v.99H75.21z"/><path class="cls-2" transform="rotate(-57.17 -51.858 237.25)" d="M75.76 309.9h141.4v.99H75.76z"/><path class="cls-2" transform="rotate(-57.3 -51.764 237.308)" d="M76.32 310.26h141.4v.99H76.32z"/><path class="cls-2" transform="rotate(-57.18 -50.718 237.954)" d="M76.88 310.62h141.4v.99H76.88z"/><path class="cls-2" transform="rotate(-57.18 -50.165 238.315)" d="M77.43 310.98h141.4v.99H77.43z"/><path class="cls-2" transform="rotate(-57.18 -49.607 238.666)" d="M77.99 311.34h141.4v.99H77.99z"/><path class="cls-2" transform="rotate(-57.3 -49.505 238.77)" d="M78.54 311.7h141.4v.99H78.54z"/><path class="cls-2" transform="rotate(-57.18 -48.492 239.393)" d="M79.1 312.06h141.4v.99H79.1z"/><path class="cls-2" transform="rotate(-57.18 -47.934 239.745)" d="M79.65 312.41h141.4v.99H79.65z"/><path class="cls-2" transform="rotate(-57.17 -47.418 240.11)" d="M80.21 312.77h141.4v.99H80.21z"/><path class="cls-2" transform="rotate(-57.16 -46.91 240.469)" d="M80.77 313.13h141.4v.99H80.77z"/><path class="cls-2" transform="rotate(-57.17 -46.325 240.812)" d="M81.32 313.49h141.4v.99H81.32z"/><path class="cls-2" transform="rotate(-57.18 -45.717 241.18)" d="M81.88 313.85h141.4v.99H81.88z"/><path class="cls-2" transform="rotate(-57.18 -45.164 241.54)" d="M82.43 314.21h141.4v.99H82.43z"/><path class="cls-2" transform="rotate(-57.18 -44.606 241.892)" d="M82.99 314.56h141.4v.99H82.99z"/><path class="cls-2" transform="rotate(-57.18 -44.053 242.253)" d="M83.54 314.92h141.4v.99H83.54z"/><path class="cls-2" transform="rotate(-57.17 -43.527 242.622)" d="M84.1 315.28h141.4v.99H84.1z"/><path class="cls-2" transform="rotate(-57.17 -42.974 242.983)" d="M84.66 315.64h141.4v.99H84.66z"/><path class="cls-2" transform="rotate(-57.17 -42.42 243.344)" d="M85.21 316h141.4v.99H85.21z"/><path class="cls-2" transform="rotate(-57.18 -41.827 243.692)" d="M85.77 316.36h141.4v.99H85.77z"/><path class="cls-2" transform="rotate(-57.18 -41.27 244.044)" d="M86.32 316.72h141.4v.99H86.32z"/><path class="cls-2" transform="rotate(-57.17 -40.77 244.398)" d="M86.88 317.07h141.4v.99H86.88z"/><path class="cls-2" transform="rotate(-57.18 -40.163 244.765)" d="M87.43 317.43h141.4v.99H87.43z"/><path class="cls-2" transform="rotate(-57.18 -39.605 245.117)" d="M87.99 317.79h141.4v.99H87.99z"/><path class="cls-2" transform="rotate(-57.17 -39.083 245.496)" d="M88.55 318.15h141.4v.99H88.55z"/><path class="cls-2" transform="rotate(-57.17 -38.525 245.847)" d="M89.1 318.51h141.4v.99H89.1z"/><path class="cls-2" transform="rotate(-57.17 -37.972 246.208)" d="M89.66 318.87h141.4v.99H89.66z"/><path class="cls-2" transform="rotate(-57.18 -37.388 246.551)" d="M90.21 319.22h141.4v.99H90.21z"/><path class="cls-2" transform="rotate(-57.18 -36.835 246.912)" d="M90.77 319.58h141.4v.99H90.77z"/><path class="cls-2" transform="rotate(-57.18 -36.273 247.278)" d="M91.32 319.94h141.4v.99H91.32z"/><path class="cls-2" transform="rotate(-57.18 -35.715 247.63)" d="M91.88 320.3h141.4v.99H91.88z"/><path class="cls-2" transform="rotate(-57.18 -35.162 247.99)" d="M92.44 320.66h141.4v.99H92.44z"/><path class="cls-2" transform="rotate(-57.17 -34.643 248.355)" d="M92.99 321.02h141.4v.99H92.99z"/><path class="cls-2" transform="rotate(-57.17 -34.08 248.721)" d="M93.55 321.38h141.4v.99H93.55z"/><path class="cls-2" transform="rotate(-57.17 -33.51 249.092)" d="M94.1 321.73h141.4v.99H94.1z"/><path class="cls-2" transform="rotate(-57.3 -33.519 249.12)" d="M94.66 322.09h141.4v.99H94.66z"/><path class="cls-2" transform="rotate(-57.17 -32.439 249.77)" d="M95.21 322.45h141.4v.99H95.21z"/><path class="cls-2" transform="rotate(-57.3 -32.387 249.86)" d="M95.77 322.81h141.4v.99H95.77z"/><path class="cls-2" transform="rotate(-57.17 -31.278 250.522)" d="M96.33 323.17h141.4v.99H96.33z"/><path class="cls-2" transform="rotate(-57.17 -30.724 250.883)" d="M96.88 323.53h141.4v.99H96.88z"/><path class="cls-2" transform="rotate(-57.17 -30.171 251.244)" d="M97.44 323.89h141.4v.99H97.44z"/><path class="cls-2" transform="rotate(-57.18 -29.608 251.577)" d="M97.99 324.24h141.4v.99H97.99z"/><path class="cls-2" transform="rotate(-57.17 -29.06 251.957)" d="M98.55 324.6h141.4v.99H98.55z"/><path class="cls-2" transform="rotate(-57.17 -28.507 252.317)" d="M99.1 324.96h141.4v.99H99.1z"/><path class="cls-2" transform="rotate(-57.18 -27.957 252.631)" d="M99.66 325.32h141.4v.99H99.66z"/><path class="cls-2" transform="rotate(-57.18 -27.386 253.002)" d="M100.22 325.68h141.4v.99h-141.4z"/><path class="cls-2" transform="rotate(-57.18 -26.824 253.368)" d="M100.77 326.04h141.4v.99h-141.4z"/><path class="cls-2" transform="rotate(-57.18 -26.293 253.705)" d="M101.33 326.39h141.4v.99h-141.4z"/><path class="cls-2" transform="rotate(-57.16 -25.773 254.102)" d="M101.88 326.75h141.4v.99h-141.4z"/><path class="cls-2" transform="rotate(-57.18 -25.16 254.441)" d="M102.44 327.11h141.4v.99h-141.4z"/><path class="cls-2" transform="rotate(-57.18 -24.62 254.783)" d="M102.99 327.47h141.4v.99h-141.4z"/><path class="cls-2" transform="rotate(-57.18 -24.067 255.144)" d="M103.55 327.83h141.4v.99h-141.4z"/><path class="cls-2" transform="rotate(-57.18 -23.487 255.52)" d="M104.11 328.19h141.4v.99h-141.4z"/><path class="cls-2" transform="rotate(-57.18 -22.934 255.88)" d="M104.66 328.55h141.4v.99h-141.4z"/><path class="cls-2" transform="rotate(-57.18 -22.376 256.232)" d="M105.22 328.9h141.4v.99h-141.4z"/><path class="cls-2" transform="rotate(-57.18 -21.85 256.578)" d="M105.77 329.26h141.4v.99h-141.4z"/><path class="cls-2" transform="rotate(-57.18 -21.297 256.94)" d="M106.33 329.62h141.4v.99h-141.4z"/><path class="cls-2" transform="rotate(-57.3 -21.218 257.095)" d="M106.88 329.98h141.4v.99h-141.4z"/><path class="cls-2" transform="rotate(-57.3 -20.657 257.461)" d="M107.44 330.34h141.4v.99h-141.4z"/><path class="cls-2" transform="rotate(-57.18 -19.624 258.018)" d="M108 330.7h141.4v.99H108z"/><path class="cls-2" transform="rotate(-57.3 -19.576 258.16)" d="M108.55 331.05h141.4v.99h-141.4z"/><path class="cls-2" transform="rotate(-57.17 -18.544 258.734)" d="M109.11 331.41h141.4v.99h-141.4z"/><path class="cls-2" transform="rotate(-57.18 -17.933 259.106)" d="M109.66 331.77h141.4v.99h-141.4z"/><path class="cls-2" transform="rotate(-57.18 -17.402 259.443)" d="M110.22 332.13h141.4v.99h-141.4z"/><path class="cls-2" transform="rotate(-57.18 -16.85 259.804)" d="M110.77 332.49h141.4v.99h-141.4z"/><path class="cls-2" transform="rotate(-57.18 -16.269 260.18)" d="M111.33 332.85h141.4v.99h-141.4z"/><path class="cls-2" transform="rotate(-57.3 -16.246 260.318)" d="M111.89 333.21h141.4v.99h-141.4z"/><path class="cls-2" transform="rotate(-57.18 -15.176 260.882)" d="M112.44 333.56h141.4v.99h-141.4z"/><path class="cls-2" transform="rotate(-57.17 -14.612 261.281)" d="M113 333.92h141.4v.99H113z"/><path class="cls-2" transform="rotate(-57.18 -14.047 261.605)" d="M113.55 334.28h141.4v.99h-141.4z"/><path class="cls-2" transform="rotate(-57.18 -13.512 261.956)" d="M114.11 334.64h141.4v.99h-141.4z"/><path class="cls-2" transform="rotate(-57.16 -12.986 262.354)" d="M114.66 335h141.4v.99h-141.4z"/><path class="cls-2" transform="rotate(-57.18 -12.379 262.692)" d="M115.22 335.36h141.4v.99h-141.4z"/><path class="cls-2" transform="rotate(-57.3 -12.418 262.807)" d="M115.78 335.71h141.4v.99h-141.4z"/><path class="cls-2" transform="rotate(-57.18 -11.286 263.395)" d="M116.33 336.07h141.4v.99h-141.4z"/><path class="cls-2" transform="rotate(-57.18 -10.728 263.747)" d="M116.89 336.43h141.4v.99h-141.4z"/><path class="cls-2" transform="rotate(-57.17 -10.172 264.14)" d="M117.44 336.79h141.4v.99h-141.4z"/><path class="cls-2" transform="rotate(-57.18 -9.604 264.478)" d="M118 337.15h141.4v.99H118z"/><path class="cls-2" transform="rotate(-57.18 -9.05 264.84)" d="M118.55 337.51h141.4v.99h-141.4z"/><path class="cls-2" transform="rotate(-57.17 -8.498 265.22)" d="M119.11 337.87h141.4v.99h-141.4z"/><path class="cls-2" transform="rotate(-57.17 -7.936 265.585)" d="M119.67 338.22h141.4v.99h-141.4z"/><path class="cls-2" transform="rotate(-57.18 -7.377 265.918)" d="M120.22 338.58h141.4v.99h-141.4z"/><path class="cls-2" transform="rotate(-57.3 -7.627 265.906)" d="M120.61 339.03h141.4v.59h-141.4z"/></g></svg>