<svg id="Layer_1" fill="#fff" data-name="Layer 1" xmlns="http://www.w3.org/2000/svg" xmlns:xlink="http://www.w3.org/1999/xlink" viewBox="0 0 745.66 198.75"><defs><style>.cls-4{clip-path:url(#clip-path);}</style><clipPath id="clip-path" transform="translate(-29.34 -200.15)"><path class="cls-1" d="M111.33,234c-.46-4.57,10.07-6.46,12-5.82,1.43.49,5,1.23,8,3.42,2.68,2,4.86,3.12,5.54,2.81,9.48-4.38,14.49-2.35,17.9,5.18,1.11,2.46,4.42,3.07,4.56,3,5.42-1.3,12.23-.23,12.32,5.52-.93,7.91-10.74,7-13.64-2.79a32.2,32.2,0,0,0-5.23-2.1c-1.63-.5-10.82,8.43-18.15-5.84-.14-.28-3-1.15-5.7-1.58-1.83-.3-15.29,8.46-17.57-1.84ZM82.14,251.32c2,7.92,12.61-1.61,14.44-1.32,2.67.43,4.27,10.22,4.41,10.49,2.26,4.41,9.15-.46,12.87-1.86,1.23-.47,4.23-.58,4.88,1.6,5.26,17.69,15.87,11.43,18.91,10.68,2.5-.62,4.72,2.73,4.74,2.84,2.65,13.3,15.33,12.23,16.26,4.31.35-10-8.32-10.26-13.74-9-.14,0-5-1.67-5.22-3-2.1-11.69-7.93-13.18-17.85-9.36a3,3,0,0,1-3.6-1.73c-1.71-3.83-3.53-10.66-6.35-10.93-8.22-.8-9.22,5.13-11.9,3.17-3-2.19-1.35-7.4-5.06-7.73-3.36-.31-13.25,7.25-12.79,11.82Zm-5.89,14.11c-.07.94,1.24,5.11,2.5,4.41,13.68-7.6,16.49-1.63,16.9,7.32.11,2.39,4,3.68,4.14,3.6,9.72-7,21.36.52,17.62,10.17C112.5,303,98,296.53,97.85,284.76c0-.09-3.21-3.23-5.39-2.55C89,283.28,81.09,290.47,78,274.6a2.35,2.35,0,0,0-3.5-.86c-20.93,15.15,3.33-29.94,1.75-8.31ZM183,255.76a3.89,3.89,0,1,1-5.12-2,3.9,3.9,0,0,1,5.12,2ZM188.48,295a3.89,3.89,0,1,1-5.11-2,3.89,3.89,0,0,1,5.11,2Zm-13.57-10a6.1,6.1,0,1,1-8-3.16,6.09,6.09,0,0,1,8,3.16Zm-105,45.54C66.51,333,71.44,341.23,73,342.15c1.18.69,3.79,2.68,7,3.42,2.92.67,5,1.47,5.18,2.12,2.61,9,7,11.25,14.09,9.12,2.33-.69,4.7,1.2,4.76,1.32,2.31,4.45,7.07,8.45,11,5.12,4.84-5.31-1.55-11.46-10-7.63a29.85,29.85,0,0,1-4.51-2.33c-1.31-.81-.66-12.34-14.7-8.9a18.52,18.52,0,0,1-4.44-2.95c-1.28-1.07-3.26-15.4-11.62-10.87Zm-7.15-40.14c7.42-2.75,5.69,10.9,6.94,12.19,1.81,1.88,10.47-2.26,10.76-2.3,4.75-.65,4.7,7.52,5.63,11.25.31,1.23,1.89,3.67,4,3,16.94-5.6,17.84,6.28,18.92,9.11.89,2.32,4.78,2.24,4.88,2.19,12-5.25,18.18,5.41,12.41,10.53-7.71,5.78-12.74-.94-14.71-6,0-.13-4.07-3-5.28-2.46-10.44,4.78-14.85,1-17.3-9a2.85,2.85,0,0,0-3.36-1.9c-4,.77-10.42,3.09-12.19,1-5.18-6.09-1-10.16-4.06-11.2-3.4-1.17-6.62,3-8.93.26-2.1-2.5-1.57-14.53,2.31-16.69ZM125,367.12a3.29,3.29,0,1,1,2.58-3.87,3.29,3.29,0,0,1-2.58,3.87Zm29.41-15.66a3.89,3.89,0,1,0-4.58-3,3.89,3.89,0,0,0,4.58,3Zm-13.27-5.53a6.09,6.09,0,1,0-7.17-4.78,6.11,6.11,0,0,0,7.17,4.78Zm.49-40.46c.21,1,5.23,2.82,5.33,2.8,3.92-.94,10.43-2.58,10.34,5.88-.67,5.73-10.25,7.12-12.17-2.52,0-.07-3.21-3.26-5-2.66-16.43,5.53-18.39-5.38-14.4-11.46,4.37-6.64,12.94-6.08,15.88,8Zm31.13,13.67a4.7,4.7,0,1,1-6.19-2.44,4.69,4.69,0,0,1,6.19,2.44Zm11.64,9.07a3.69,3.69,0,1,1-4.86-1.92,3.68,3.68,0,0,1,4.86,1.92Z"/></clipPath></defs><title>Earth Science Analytics - Logo - APPROVED</title><path class="cls-2" d="M241.86,243.26v9.22h-26.4v10.7h23.72v9.23H215.46v10.91h27.17v9.22h-38.3V243.26Z" transform="translate(-29.34 -200.15)"/><path class="cls-2" d="M283.89,283H261.08l-3.87,9.57H245.73l21.41-49.28h11.47l21.05,49.28h-11.9ZM280.3,274l-7.74-19.15L264.74,274Z" transform="translate(-29.34 -200.15)"/><path class="cls-2" d="M335.08,292.54l-7.81-14.08H315.93v14.08H304.81V243.26h21.4c12.88,0,20.21,6.2,20.21,17.11,0,7.6-3.24,13.09-9.23,15.91l10.49,16.26Zm-19.15-23.37h10.28c6.12,0,9.64-2.82,9.64-8.45s-3.52-8.24-9.64-8.24H315.93Z" transform="translate(-29.34 -200.15)"/><path class="cls-2" d="M392.11,243.26v9.43H377v39.85H365.92V252.69h-15v-9.43Z" transform="translate(-29.34 -200.15)"/><path class="cls-2" d="M409.22,243.26v20.56h22.32V243.26h11.13v49.28H431.54V273.11H409.22v19.43H398.1V243.26Z" transform="translate(-29.34 -200.15)"/><path class="cls-2" d="M491,248.54c-6.34,0-10.49,2.53-10.49,6.76,0,12.81,27.74,6.12,27.67,24,0,8.16-7.26,13.44-17.82,13.44a28.12,28.12,0,0,1-18.87-7.53l2.54-4.86a24.74,24.74,0,0,0,16.4,6.9c7.11,0,11.55-2.88,11.55-7.67.07-13.17-27.67-6.2-27.67-23.87,0-7.74,6.83-12.67,17-12.67A29.2,29.2,0,0,1,507,247.62l-2.4,5A26,26,0,0,0,491,248.54Z" transform="translate(-29.34 -200.15)"/><path class="cls-2" d="M540.82,248.26a19.61,19.61,0,1,0,0,39.21,21.48,21.48,0,0,0,14.57-5.91l3.45,3.73a27.07,27.07,0,0,1-18.31,7.46c-14.22,0-25.48-11-25.48-24.92s11.4-24.71,25.7-24.71a26.63,26.63,0,0,1,18,7.18l-3.38,4.08A20.93,20.93,0,0,0,540.82,248.26Z" transform="translate(-29.34 -200.15)"/><path class="cls-2" d="M574.61,243.26v49.28H569V243.26Z" transform="translate(-29.34 -200.15)"/><path class="cls-2" d="M623,243.26v5.21H595.17V265H620v5.14H595.17v17.18H623.9v5.21H589.54V243.26Z" transform="translate(-29.34 -200.15)"/><path class="cls-2" d="M641.22,243.26l29.57,40.06V243.26h5.56v49.28h-5.77l-29.57-40v40h-5.63V243.26Z" transform="translate(-29.34 -200.15)"/><path class="cls-2" d="M712.47,248.26a19.61,19.61,0,1,0,0,39.21,21.52,21.52,0,0,0,14.58-5.91l3.45,3.73a27.07,27.07,0,0,1-18.31,7.46c-14.22,0-25.48-11-25.48-24.92s11.4-24.71,25.69-24.71a26.64,26.64,0,0,1,18,7.18l-3.38,4.08A21,21,0,0,0,712.47,248.26Z" transform="translate(-29.34 -200.15)"/><path class="cls-2" d="M774.08,243.26v5.21H746.27V265h24.85v5.14H746.27v17.18H775v5.21H740.64V243.26Z" transform="translate(-29.34 -200.15)"/><path class="cls-2" d="M236.86,344H214.05l-3.87,9.57H198.7l21.4-49.28h11.48l21,49.28h-11.9Zm-3.59-8.94-7.75-19.15-7.81,19.15Z" transform="translate(-29.34 -200.15)"/><path class="cls-2" d="M267.91,304.28,291.85,336V304.28h10.56v49.28H292.27L268.4,322v31.61H257.77V304.28Z" transform="translate(-29.34 -200.15)"/><path class="cls-2" d="M345.78,344H323l-3.87,9.57H307.62L329,304.28H340.5l21.05,49.28h-11.9Zm-3.59-8.94-7.74-19.15-7.82,19.15Z" transform="translate(-29.34 -200.15)"/><path class="cls-2" d="M377.82,304.28v39.57h21.12v9.71H366.7V304.28Z" transform="translate(-29.34 -200.15)"/><path class="cls-2" d="M429.29,337.65v15.91H418.16V337.93l-18.23-33.65h11.19l12.6,22.11,12.33-22.11h11.19Z" transform="translate(-29.34 -200.15)"/><path class="cls-2" d="M488.78,304.28v9.44H473.71v39.84H462.59V313.72h-15v-9.44Z" transform="translate(-29.34 -200.15)"/><path class="cls-2" d="M505.89,304.28v49.28H494.77V304.28Z" transform="translate(-29.34 -200.15)"/><path class="cls-2" d="M539.69,313.58a15.17,15.17,0,0,0,0,30.34c4.43,0,9.29-2.25,12.81-5.77l6.55,7.11c-5.21,5.35-12.75,8.8-19.93,8.8-14.71,0-25.83-10.92-25.83-25.21s11.33-24.92,26.26-24.92A28,28,0,0,1,559,312.1L552.5,320C549.12,316.11,544.26,313.58,539.69,313.58Z" transform="translate(-29.34 -200.15)"/><path class="cls-2" d="M582.78,313.29c-3.73,0-6.27,1.34-6.27,4,0,9.08,26.26,4,26.19,21.75,0,9.65-8.38,14.86-19.29,14.86a34.56,34.56,0,0,1-21.75-7.82l4.43-9.08c5.07,4.51,12.25,7.39,17.46,7.39,4.58,0,7.32-1.69,7.32-4.71,0-9.3-26.26-3.88-26.26-21.34,0-8.94,7.68-14.57,19.08-14.57a35.23,35.23,0,0,1,18.73,5.35l-4.3,9.22C592.92,315.26,586.72,313.29,582.78,313.29Z" transform="translate(-29.34 -200.15)"/><path class="cls-3" d="M111.33,234c-.46-4.57,10.07-6.46,12-5.82,1.43.49,5,1.23,8,3.42,2.68,2,4.86,3.12,5.54,2.81,9.48-4.38,14.49-2.35,17.9,5.18,1.11,2.46,4.42,3.07,4.56,3,5.42-1.3,12.23-.23,12.32,5.52-.93,7.91-10.74,7-13.64-2.79a32.2,32.2,0,0,0-5.23-2.1c-1.63-.5-10.82,8.43-18.15-5.84-.14-.28-3-1.15-5.7-1.58-1.83-.3-15.29,8.46-17.57-1.84ZM82.14,251.32c2,7.92,12.61-1.61,14.44-1.32,2.67.43,4.27,10.22,4.41,10.49,2.26,4.41,9.15-.46,12.87-1.86,1.23-.47,4.23-.58,4.88,1.6,5.26,17.69,15.87,11.43,18.91,10.68,2.5-.62,4.72,2.73,4.74,2.84,2.65,13.3,15.33,12.23,16.26,4.31.35-10-8.32-10.26-13.74-9-.14,0-5-1.67-5.22-3-2.1-11.69-7.93-13.18-17.85-9.36a3,3,0,0,1-3.6-1.73c-1.71-3.83-3.53-10.66-6.35-10.93-8.22-.8-9.22,5.13-11.9,3.17-3-2.19-1.35-7.4-5.06-7.73-3.36-.31-13.25,7.25-12.79,11.82Zm-5.89,14.11c-.07.94,1.24,5.11,2.5,4.41,13.68-7.6,16.49-1.63,16.9,7.32.11,2.39,4,3.68,4.14,3.6,9.72-7,21.36.52,17.62,10.17C112.5,303,98,296.53,97.85,284.76c0-.09-3.21-3.23-5.39-2.55C89,283.28,81.09,290.47,78,274.6a2.35,2.35,0,0,0-3.5-.86c-20.93,15.15,3.33-29.94,1.75-8.31ZM183,255.76a3.89,3.89,0,1,1-5.12-2,3.9,3.9,0,0,1,5.12,2ZM188.48,295a3.89,3.89,0,1,1-5.11-2,3.89,3.89,0,0,1,5.11,2Zm-13.57-10a6.1,6.1,0,1,1-8-3.16,6.09,6.09,0,0,1,8,3.16Zm-105,45.54C66.51,333,71.44,341.23,73,342.15c1.18.69,3.79,2.68,7,3.42,2.92.67,5,1.47,5.18,2.12,2.61,9,7,11.25,14.09,9.12,2.33-.69,4.7,1.2,4.76,1.32,2.31,4.45,7.07,8.45,11,5.12,4.84-5.31-1.55-11.46-10-7.63a29.85,29.85,0,0,1-4.51-2.33c-1.31-.81-.66-12.34-14.7-8.9a18.52,18.52,0,0,1-4.44-2.95c-1.28-1.07-3.26-15.4-11.62-10.87Zm-7.15-40.14c7.42-2.75,5.69,10.9,6.94,12.19,1.81,1.88,10.47-2.26,10.76-2.3,4.75-.65,4.7,7.52,5.63,11.25.31,1.23,1.89,3.67,4,3,16.94-5.6,17.84,6.28,18.92,9.11.89,2.32,4.78,2.24,4.88,2.19,12-5.25,18.18,5.41,12.41,10.53-7.71,5.78-12.74-.94-14.71-6,0-.13-4.07-3-5.28-2.46-10.44,4.78-14.85,1-17.3-9a2.85,2.85,0,0,0-3.36-1.9c-4,.77-10.42,3.09-12.19,1-5.18-6.09-1-10.16-4.06-11.2-3.4-1.17-6.62,3-8.93.26-2.1-2.5-1.57-14.53,2.31-16.69ZM125,367.12a3.29,3.29,0,1,1,2.58-3.87,3.29,3.29,0,0,1-2.58,3.87Zm29.41-15.66a3.89,3.89,0,1,0-4.58-3,3.89,3.89,0,0,0,4.58,3Zm-13.27-5.53a6.09,6.09,0,1,0-7.17-4.78,6.11,6.11,0,0,0,7.17,4.78Zm.49-40.46c.21,1,5.23,2.82,5.33,2.8,3.92-.94,10.43-2.58,10.34,5.88-.67,5.73-10.25,7.12-12.17-2.52,0-.07-3.21-3.26-5-2.66-16.43,5.53-18.39-5.38-14.4-11.46,4.37-6.64,12.94-6.08,15.88,8Zm31.13,13.67a4.7,4.7,0,1,1-6.19-2.44,4.69,4.69,0,0,1,6.19,2.44Zm11.64,9.07a3.69,3.69,0,1,1-4.86-1.92,3.68,3.68,0,0,1,4.86,1.92Z" transform="translate(-29.34 -200.15)"/><g class="cls-4"><rect class="cls-2" x="0.73" y="257.51" width="141.4" height="8.97" transform="translate(-216.79 -20.16) rotate(-57.17)"/><rect class="cls-2" x="4.63" y="264.02" width="141.4" height="0.99" transform="translate(-217.12 -15.7) rotate(-57.18)"/><rect class="cls-2" x="5.19" y="264.38" width="141.4" height="0.99" transform="translate(-217.17 -15.07) rotate(-57.18)"/><rect class="cls-2" x="5.75" y="264.74" width="141.4" height="0.99" transform="translate(-217.2 -14.5) rotate(-57.17)"/><rect class="cls-2" x="6.3" y="265.1" width="141.4" height="0.99" transform="translate(-217.26 -13.81) rotate(-57.18)"/><rect class="cls-2" x="6.86" y="265.45" width="141.4" height="0.99" transform="translate(-217.29 -13.23) rotate(-57.17)"/><rect class="cls-2" x="7.41" y="265.81" width="141.4" height="0.99" transform="translate(-217.36 -12.54) rotate(-57.18)"/><rect class="cls-2" x="7.97" y="266.17" width="141.4" height="0.99" transform="matrix(0.54, -0.84, 0.84, 0.54, -217.39, -11.95)"/><rect class="cls-2" x="8.52" y="266.53" width="141.4" height="0.99" transform="translate(-217.44 -11.32) rotate(-57.17)"/><rect class="cls-2" x="9.08" y="266.89" width="141.4" height="0.99" transform="translate(-217.49 -10.68) rotate(-57.17)"/><rect class="cls-2" x="9.64" y="267.25" width="141.4" height="0.99" transform="translate(-217.53 -10.05) rotate(-57.17)"/><rect class="cls-2" x="10.19" y="267.6" width="141.4" height="0.99" transform="translate(-217.58 -9.42) rotate(-57.17)"/><rect class="cls-2" x="10.75" y="267.96" width="141.4" height="0.99" transform="translate(-217.64 -8.75) rotate(-57.18)"/><rect class="cls-2" x="11.3" y="268.32" width="141.4" height="0.99" transform="translate(-217.69 -8.12) rotate(-57.18)"/><rect class="cls-2" x="11.86" y="268.68" width="141.4" height="0.99" transform="translate(-217.73 -7.49) rotate(-57.18)"/><rect class="cls-2" x="12.41" y="269.04" width="141.4" height="0.99" transform="translate(-217.77 -6.9) rotate(-57.17)"/><rect class="cls-2" x="12.97" y="269.4" width="141.4" height="0.99" transform="translate(-217.8 -6.33) rotate(-57.16)"/><rect class="cls-2" x="13.53" y="269.76" width="141.4" height="0.99" transform="matrix(0.54, -0.84, 0.84, 0.54, -217.86, -5.64)"/><rect class="cls-2" x="14.08" y="270.11" width="141.4" height="0.99" transform="translate(-217.89 -5.07) rotate(-57.16)"/><rect class="cls-2" x="14.64" y="270.47" width="141.4" height="0.99" transform="matrix(0.54, -0.84, 0.84, 0.54, -217.97, -4.33)"/><rect class="cls-2" x="15.19" y="270.83" width="141.4" height="0.99" transform="translate(-218.01 -3.7) rotate(-57.18)"/><rect class="cls-2" x="15.75" y="271.19" width="141.4" height="0.99" transform="translate(-218.06 -3.07) rotate(-57.18)"/><rect class="cls-2" x="16.3" y="271.55" width="141.4" height="0.99" transform="translate(-218.11 -2.44) rotate(-57.18)"/><rect class="cls-2" x="16.86" y="271.91" width="141.4" height="0.99" transform="translate(-218.15 -1.81) rotate(-57.18)"/><rect class="cls-2" x="17.42" y="272.26" width="141.4" height="0.99" transform="translate(-218.2 -1.18) rotate(-57.18)"/><rect class="cls-2" x="17.97" y="272.62" width="141.4" height="0.99" transform="translate(-218.23 -0.59) rotate(-57.17)"/><rect class="cls-2" x="18.53" y="272.98" width="141.4" height="0.99" transform="translate(-218.29 0.09) rotate(-57.18)"/><rect class="cls-2" x="19.08" y="273.34" width="141.4" height="0.99" transform="translate(-218.34 0.71) rotate(-57.18)"/><rect class="cls-2" x="19.64" y="273.7" width="141.4" height="0.99" transform="translate(-218.39 1.35) rotate(-57.18)"/><rect class="cls-2" x="20.19" y="274.06" width="141.4" height="0.99" transform="translate(-218.43 1.98) rotate(-57.18)"/><rect class="cls-2" x="20.75" y="274.42" width="141.4" height="0.99" transform="translate(-218.48 2.61) rotate(-57.18)"/><rect class="cls-2" x="21.31" y="274.77" width="141.4" height="0.99" transform="translate(-218.53 3.24) rotate(-57.18)"/><rect class="cls-2" x="21.86" y="275.13" width="141.4" height="0.99" transform="translate(-218.56 3.83) rotate(-57.17)"/><rect class="cls-2" x="22.42" y="275.49" width="141.4" height="0.99" transform="translate(-218.61 4.46) rotate(-57.17)"/><rect class="cls-2" x="22.97" y="275.85" width="141.4" height="0.99" transform="translate(-218.66 5.09) rotate(-57.17)"/><rect class="cls-2" x="23.53" y="276.21" width="141.4" height="0.99" transform="translate(-218.7 5.71) rotate(-57.17)"/><rect class="cls-2" x="24.08" y="276.57" width="141.4" height="0.99" transform="translate(-218.76 6.39) rotate(-57.18)"/><rect class="cls-2" x="24.64" y="276.92" width="141.4" height="0.99" transform="translate(-218.81 7.02) rotate(-57.18)"/><rect class="cls-2" x="25.2" y="277.28" width="141.4" height="0.99" transform="translate(-218.85 7.66) rotate(-57.18)"/><rect class="cls-2" x="25.75" y="277.64" width="141.4" height="0.99" transform="translate(-218.88 8.19) rotate(-57.16)"/><rect class="cls-2" x="26.31" y="278" width="141.4" height="0.99" transform="translate(-218.94 8.87) rotate(-57.17)"/><rect class="cls-2" x="26.86" y="278.36" width="141.4" height="0.99" transform="translate(-218.97 9.45) rotate(-57.16)"/><rect class="cls-2" x="27.42" y="278.72" width="141.4" height="0.99" transform="translate(-219.03 10.13) rotate(-57.17)"/><rect class="cls-2" x="27.97" y="279.08" width="141.4" height="0.99" transform="translate(-219.08 10.8) rotate(-57.18)"/><rect class="cls-2" x="28.53" y="279.43" width="141.4" height="0.99" transform="translate(-219.13 11.44) rotate(-57.18)"/><rect class="cls-2" x="29.09" y="279.79" width="141.4" height="0.99" transform="translate(-219.18 12.07) rotate(-57.18)"/><rect class="cls-2" x="29.64" y="280.15" width="141.4" height="0.99" transform="translate(-219.23 12.71) rotate(-57.18)"/><rect class="cls-2" x="30.2" y="280.51" width="141.4" height="0.99" transform="translate(-219.27 13.34) rotate(-57.18)"/><rect class="cls-2" x="30.75" y="280.87" width="141.4" height="0.99" transform="translate(-219.32 13.97) rotate(-57.18)"/><rect class="cls-2" x="31.31" y="281.23" width="141.4" height="0.99" transform="translate(-219.36 14.55) rotate(-57.17)"/><rect class="cls-2" x="31.86" y="281.58" width="141.4" height="0.99" transform="translate(-219.41 15.23) rotate(-57.18)"/><rect class="cls-2" x="32.42" y="281.94" width="141.4" height="0.99" transform="translate(-219.46 15.86) rotate(-57.18)"/><rect class="cls-2" x="32.97" y="282.3" width="141.4" height="0.99" transform="translate(-219.49 16.43) rotate(-57.17)"/><rect class="cls-2" x="33.53" y="282.66" width="141.4" height="0.99" transform="translate(-219.55 17.12) rotate(-57.18)"/><rect class="cls-2" x="34.09" y="283.02" width="141.4" height="0.99" transform="translate(-219.59 17.69) rotate(-57.17)"/><rect class="cls-2" x="34.64" y="283.38" width="141.4" height="0.99" transform="translate(-219.65 18.39) rotate(-57.18)"/><rect class="cls-2" x="35.2" y="283.74" width="141.4" height="0.99" transform="translate(-219.69 19.02) rotate(-57.18)"/><rect class="cls-2" x="35.75" y="284.09" width="141.4" height="0.99" transform="translate(-219.73 19.61) rotate(-57.17)"/><rect class="cls-2" x="36.31" y="284.45" width="141.4" height="0.99" transform="translate(-219.78 20.24) rotate(-57.17)"/><rect class="cls-2" x="36.87" y="284.81" width="141.4" height="0.99" transform="matrix(0.54, -0.84, 0.84, 0.54, -219.83, 20.91)"/><rect class="cls-2" x="37.42" y="285.17" width="141.4" height="0.99" transform="translate(-219.88 21.54) rotate(-57.18)"/><rect class="cls-2" x="37.98" y="285.53" width="141.4" height="0.99" transform="matrix(0.54, -0.84, 0.84, 0.54, -219.93, 22.17)"/><rect class="cls-2" x="38.53" y="285.89" width="141.4" height="0.99" transform="translate(-219.98 22.81) rotate(-57.18)"/><rect class="cls-2" x="39.09" y="286.25" width="141.4" height="0.99" transform="translate(-220.02 23.44) rotate(-57.18)"/><rect class="cls-2" x="39.64" y="286.6" width="141.4" height="0.99" transform="translate(-220.04 23.96) rotate(-57.16)"/><rect class="cls-2" x="40.2" y="286.96" width="141.4" height="0.99" transform="translate(-220.11 24.66) rotate(-57.17)"/><rect class="cls-2" x="40.75" y="287.32" width="141.4" height="0.99" transform="translate(-220.14 25.22) rotate(-57.16)"/><rect class="cls-2" x="41.31" y="287.68" width="141.4" height="0.99" transform="translate(-220.21 25.96) rotate(-57.18)"/><rect class="cls-2" x="41.87" y="288.04" width="141.4" height="0.99" transform="translate(-220.24 26.53) rotate(-57.17)"/><rect class="cls-2" x="42.42" y="288.4" width="141.4" height="0.99" transform="translate(-220.3 27.23) rotate(-57.18)"/><rect class="cls-2" x="42.98" y="288.75" width="141.4" height="0.99" transform="translate(-220.35 27.86) rotate(-57.18)"/><rect class="cls-2" x="43.53" y="289.11" width="141.4" height="0.99" transform="translate(-220.4 28.49) rotate(-57.18)"/><rect class="cls-2" x="44.09" y="289.47" width="141.4" height="0.99" transform="translate(-220.43 29.08) rotate(-57.17)"/><rect class="cls-2" x="44.64" y="289.83" width="141.4" height="0.99" transform="translate(-220.48 29.7) rotate(-57.17)"/><rect class="cls-2" x="45.2" y="290.19" width="141.4" height="0.99" transform="translate(-220.54 30.38) rotate(-57.18)"/><rect class="cls-2" x="45.76" y="290.55" width="141.4" height="0.99" transform="translate(-220.58 31.01) rotate(-57.18)"/><rect class="cls-2" x="46.31" y="290.91" width="141.4" height="0.99" transform="matrix(0.54, -0.84, 0.84, 0.54, -220.63, 31.65)"/><rect class="cls-2" x="46.87" y="291.26" width="141.4" height="0.99" transform="translate(-220.68 32.28) rotate(-57.18)"/><rect class="cls-2" x="47.42" y="291.62" width="141.4" height="0.99" transform="translate(-220.72 32.91) rotate(-57.18)"/><rect class="cls-2" x="47.98" y="291.98" width="141.4" height="0.99" transform="translate(-220.77 33.54) rotate(-57.18)"/><rect class="cls-2" x="48.54" y="292.34" width="141.4" height="0.99" transform="translate(-220.82 34.17) rotate(-57.18)"/><rect class="cls-2" x="49.09" y="292.7" width="141.4" height="0.99" transform="translate(-220.85 34.75) rotate(-57.17)"/><rect class="cls-2" x="49.65" y="293.06" width="141.4" height="0.99" transform="translate(-220.91 35.43) rotate(-57.18)"/><rect class="cls-2" x="50.2" y="293.41" width="141.4" height="0.99" transform="translate(-220.96 36.06) rotate(-57.18)"/><rect class="cls-2" x="50.76" y="293.77" width="141.4" height="0.99" transform="translate(-221 36.69) rotate(-57.18)"/><rect class="cls-2" x="51.31" y="294.13" width="141.4" height="0.99" transform="translate(-221.05 37.33) rotate(-57.18)"/><rect class="cls-2" x="51.87" y="294.49" width="141.4" height="0.99" transform="translate(-221.1 37.95) rotate(-57.18)"/><rect class="cls-2" x="52.42" y="294.85" width="141.4" height="0.99" transform="translate(-221.14 38.58) rotate(-57.18)"/><rect class="cls-2" x="52.98" y="295.21" width="141.4" height="0.99" transform="translate(-221.18 39.17) rotate(-57.17)"/><rect class="cls-2" x="53.54" y="295.57" width="141.4" height="0.99" transform="translate(-221.22 39.73) rotate(-57.16)"/><rect class="cls-2" x="54.09" y="295.92" width="141.4" height="0.99" transform="translate(-221.28 40.43) rotate(-57.17)"/><rect class="cls-2" x="54.65" y="296.28" width="141.4" height="0.99" transform="translate(-221.32 41.06) rotate(-57.17)"/><rect class="cls-2" x="55.2" y="296.64" width="141.4" height="0.99" transform="translate(-221.38 41.74) rotate(-57.18)"/><rect class="cls-2" x="55.76" y="297" width="141.4" height="0.99" transform="translate(-221.42 42.37) rotate(-57.18)"/><rect class="cls-2" x="56.31" y="297.36" width="141.4" height="0.99" transform="translate(-221.47 43) rotate(-57.18)"/><rect class="cls-2" x="56.87" y="297.72" width="141.4" height="0.99" transform="matrix(0.54, -0.84, 0.84, 0.54, -221.52, 43.63)"/><rect class="cls-2" x="57.43" y="298.07" width="141.4" height="0.99" transform="translate(-221.56 44.21) rotate(-57.17)"/><rect class="cls-2" x="57.98" y="298.43" width="141.4" height="0.99" transform="translate(-221.6 44.85) rotate(-57.17)"/><rect class="cls-2" x="58.54" y="298.79" width="141.4" height="0.99" transform="translate(-221.65 45.48) rotate(-57.17)"/><rect class="cls-2" x="59.09" y="299.15" width="141.4" height="0.99" transform="translate(-221.7 46.16) rotate(-57.18)"/><rect class="cls-2" x="59.65" y="299.51" width="141.4" height="0.99" transform="translate(-221.75 46.79) rotate(-57.18)"/><rect class="cls-2" x="60.2" y="299.87" width="141.4" height="0.99" transform="translate(-221.8 47.42) rotate(-57.18)"/><rect class="cls-2" x="60.76" y="300.23" width="141.4" height="0.99" transform="translate(-221.83 47.98) rotate(-57.17)"/><rect class="cls-2" x="61.32" y="300.58" width="141.4" height="0.99" transform="translate(-221.89 48.68) rotate(-57.18)"/><rect class="cls-2" x="61.87" y="300.94" width="141.4" height="0.99" transform="translate(-221.94 49.31) rotate(-57.18)"/><rect class="cls-2" x="62.43" y="301.3" width="141.4" height="0.99" transform="matrix(0.54, -0.84, 0.84, 0.54, -221.98, 49.89)"/><rect class="cls-2" x="62.98" y="301.66" width="141.4" height="0.99" transform="translate(-222.03 50.58) rotate(-57.18)"/><rect class="cls-2" x="63.54" y="302.02" width="141.4" height="0.99" transform="translate(-222.08 51.21) rotate(-57.18)"/><rect class="cls-2" x="64.09" y="302.38" width="141.4" height="0.99" transform="translate(-222.12 51.84) rotate(-57.18)"/><rect class="cls-2" x="64.65" y="302.74" width="141.4" height="0.99" transform="translate(-222.17 52.47) rotate(-57.18)"/><rect class="cls-2" x="65.21" y="303.09" width="141.4" height="0.99" transform="translate(-222.22 53.1) rotate(-57.18)"/><rect class="cls-2" x="65.76" y="303.45" width="141.4" height="0.99" transform="translate(-222.26 53.73) rotate(-57.18)"/><rect class="cls-2" x="66.32" y="303.81" width="141.4" height="0.99" transform="translate(-222.3 54.31) rotate(-57.17)"/><rect class="cls-2" x="66.87" y="304.17" width="141.4" height="0.99" transform="matrix(0.54, -0.84, 0.84, 0.54, -222.35, 54.95)"/><rect class="cls-2" x="67.43" y="304.53" width="141.4" height="0.99" transform="matrix(0.54, -0.84, 0.84, 0.54, -222.39, 55.51)"/><rect class="cls-2" x="67.98" y="304.89" width="141.4" height="0.99" transform="translate(-222.44 56.14) rotate(-57.16)"/><rect class="cls-2" x="68.54" y="305.24" width="141.4" height="0.99" transform="translate(-222.5 56.89) rotate(-57.18)"/><rect class="cls-2" x="69.1" y="305.6" width="141.4" height="0.99" transform="translate(-222.55 57.52) rotate(-57.18)"/><rect class="cls-2" x="69.65" y="305.96" width="141.4" height="0.99" transform="translate(-222.59 58.15) rotate(-57.18)"/><rect class="cls-2" x="70.21" y="306.32" width="141.4" height="0.99" transform="translate(-222.63 58.73) rotate(-57.17)"/><rect class="cls-2" x="70.76" y="306.68" width="141.4" height="0.99" transform="translate(-222.68 59.36) rotate(-57.17)"/><rect class="cls-2" x="71.32" y="307.04" width="141.4" height="0.99" transform="translate(-222.73 60) rotate(-57.17)"/><rect class="cls-2" x="71.87" y="307.4" width="141.4" height="0.99" transform="translate(-222.77 60.63) rotate(-57.17)"/><rect class="cls-2" x="72.43" y="307.75" width="141.4" height="0.99" transform="translate(-222.82 61.26) rotate(-57.17)"/><rect class="cls-2" x="72.99" y="308.11" width="141.4" height="0.99" transform="translate(-222.87 61.94) rotate(-57.18)"/><rect class="cls-2" x="73.54" y="308.47" width="141.4" height="0.99" transform="translate(-222.92 62.57) rotate(-57.18)"/><rect class="cls-2" x="74.1" y="308.83" width="141.4" height="0.99" transform="matrix(0.54, -0.84, 0.84, 0.54, -222.97, 63.2)"/><rect class="cls-2" x="74.65" y="309.19" width="141.4" height="0.99" transform="translate(-223.01 63.83) rotate(-57.18)"/><rect class="cls-2" x="75.21" y="309.55" width="141.4" height="0.99" transform="translate(-223.06 64.47) rotate(-57.18)"/><rect class="cls-2" x="75.76" y="309.9" width="141.4" height="0.99" transform="translate(-223.1 65.05) rotate(-57.17)"/><rect class="cls-2" x="76.32" y="310.26" width="141.4" height="0.99" transform="matrix(0.54, -0.84, 0.84, 0.54, -223.15, 65.68)"/><rect class="cls-2" x="76.88" y="310.62" width="141.4" height="0.99" transform="translate(-223.2 66.36) rotate(-57.18)"/><rect class="cls-2" x="77.43" y="310.98" width="141.4" height="0.99" transform="translate(-223.25 66.99) rotate(-57.18)"/><rect class="cls-2" x="77.99" y="311.34" width="141.4" height="0.99" transform="translate(-223.29 67.62) rotate(-57.18)"/><rect class="cls-2" x="78.54" y="311.7" width="141.4" height="0.99" transform="matrix(0.54, -0.84, 0.84, 0.54, -223.34, 68.25)"/><rect class="cls-2" x="79.1" y="312.06" width="141.4" height="0.99" transform="translate(-223.39 68.89) rotate(-57.18)"/><rect class="cls-2" x="79.65" y="312.41" width="141.4" height="0.99" transform="translate(-223.43 69.52) rotate(-57.18)"/><rect class="cls-2" x="80.21" y="312.77" width="141.4" height="0.99" transform="translate(-223.47 70.09) rotate(-57.17)"/><rect class="cls-2" x="80.77" y="313.13" width="141.4" height="0.99" transform="translate(-223.51 70.65) rotate(-57.16)"/><rect class="cls-2" x="81.32" y="313.49" width="141.4" height="0.99" transform="translate(-223.56 71.33) rotate(-57.17)"/><rect class="cls-2" x="81.88" y="313.85" width="141.4" height="0.99" transform="translate(-223.62 72.04) rotate(-57.18)"/><rect class="cls-2" x="82.43" y="314.21" width="141.4" height="0.99" transform="translate(-223.67 72.67) rotate(-57.18)"/><rect class="cls-2" x="82.99" y="314.56" width="141.4" height="0.99" transform="translate(-223.71 73.3) rotate(-57.18)"/><rect class="cls-2" x="83.54" y="314.92" width="141.4" height="0.99" transform="translate(-223.76 73.93) rotate(-57.18)"/><rect class="cls-2" x="84.1" y="315.28" width="141.4" height="0.99" transform="translate(-223.8 74.51) rotate(-57.17)"/><rect class="cls-2" x="84.66" y="315.64" width="141.4" height="0.99" transform="translate(-223.85 75.14) rotate(-57.17)"/><rect class="cls-2" x="85.21" y="316" width="141.4" height="0.99" transform="translate(-223.9 75.77) rotate(-57.17)"/><rect class="cls-2" x="85.77" y="316.36" width="141.4" height="0.99" transform="translate(-223.95 76.46) rotate(-57.18)"/><rect class="cls-2" x="86.32" y="316.72" width="141.4" height="0.99" transform="translate(-223.99 77.09) rotate(-57.18)"/><rect class="cls-2" x="86.88" y="317.07" width="141.4" height="0.99" transform="translate(-224.03 77.64) rotate(-57.17)"/><rect class="cls-2" x="87.43" y="317.43" width="141.4" height="0.99" transform="translate(-224.09 78.35) rotate(-57.18)"/><rect class="cls-2" x="87.99" y="317.79" width="141.4" height="0.99" transform="translate(-224.13 78.98) rotate(-57.18)"/><rect class="cls-2" x="88.55" y="318.15" width="141.4" height="0.99" transform="translate(-224.18 79.56) rotate(-57.17)"/><rect class="cls-2" x="89.1" y="318.51" width="141.4" height="0.99" transform="translate(-224.22 80.19) rotate(-57.17)"/><rect class="cls-2" x="89.66" y="318.87" width="141.4" height="0.99" transform="translate(-224.27 80.82) rotate(-57.17)"/><rect class="cls-2" x="90.21" y="319.22" width="141.4" height="0.99" transform="translate(-224.32 81.5) rotate(-57.18)"/><rect class="cls-2" x="90.77" y="319.58" width="141.4" height="0.99" transform="translate(-224.37 82.13) rotate(-57.18)"/><rect class="cls-2" x="91.32" y="319.94" width="141.4" height="0.99" transform="translate(-224.42 82.77) rotate(-57.18)"/><rect class="cls-2" x="91.88" y="320.3" width="141.4" height="0.99" transform="translate(-224.46 83.4) rotate(-57.18)"/><rect class="cls-2" x="92.44" y="320.66" width="141.4" height="0.99" transform="translate(-224.51 84.03) rotate(-57.18)"/><rect class="cls-2" x="92.99" y="321.02" width="141.4" height="0.99" transform="translate(-224.55 84.6) rotate(-57.17)"/><rect class="cls-2" x="93.55" y="321.38" width="141.4" height="0.99" transform="translate(-224.6 85.24) rotate(-57.17)"/><rect class="cls-2" x="94.1" y="321.73" width="141.4" height="0.99" transform="translate(-224.65 85.89) rotate(-57.17)"/><rect class="cls-2" x="94.66" y="322.09" width="141.4" height="0.99" transform="matrix(0.54, -0.84, 0.84, 0.54, -224.68, 86.44)"/><rect class="cls-2" x="95.21" y="322.45" width="141.4" height="0.99" transform="translate(-224.73 87.1) rotate(-57.17)"/><rect class="cls-2" x="95.77" y="322.81" width="141.4" height="0.99" transform="matrix(0.54, -0.84, 0.84, 0.54, -224.78, 87.73)"/><rect class="cls-2" x="96.33" y="323.17" width="141.4" height="0.99" transform="translate(-224.83 88.42) rotate(-57.17)"/><rect class="cls-2" x="96.88" y="323.53" width="141.4" height="0.99" transform="translate(-224.88 89.05) rotate(-57.17)"/><rect class="cls-2" x="97.44" y="323.89" width="141.4" height="0.99" transform="translate(-224.93 89.68) rotate(-57.17)"/><rect class="cls-2" x="97.99" y="324.24" width="141.4" height="0.99" transform="translate(-224.98 90.34) rotate(-57.18)"/><rect class="cls-2" x="98.55" y="324.6" width="141.4" height="0.99" transform="translate(-225.02 90.94) rotate(-57.17)"/><rect class="cls-2" x="99.1" y="324.96" width="141.4" height="0.99" transform="translate(-225.07 91.57) rotate(-57.17)"/><rect class="cls-2" x="99.66" y="325.32" width="141.4" height="0.99" transform="translate(-225.11 92.21) rotate(-57.18)"/><rect class="cls-2" x="100.22" y="325.68" width="141.4" height="0.99" transform="translate(-225.16 92.86) rotate(-57.18)"/><rect class="cls-2" x="100.77" y="326.04" width="141.4" height="0.99" transform="translate(-225.21 93.5) rotate(-57.18)"/><rect class="cls-2" x="101.33" y="326.39" width="141.4" height="0.99" transform="translate(-225.25 94.1) rotate(-57.18)"/><rect class="cls-2" x="101.88" y="326.75" width="141.4" height="0.99" transform="translate(-225.29 94.65) rotate(-57.16)"/><rect class="cls-2" x="102.44" y="327.11" width="141.4" height="0.99" transform="translate(-225.35 95.39) rotate(-57.18)"/><rect class="cls-2" x="102.99" y="327.47" width="141.4" height="0.99" transform="translate(-225.39 96) rotate(-57.18)"/><rect class="cls-2" x="103.55" y="327.83" width="141.4" height="0.99" transform="translate(-225.44 96.63) rotate(-57.18)"/><rect class="cls-2" x="104.11" y="328.19" width="141.4" height="0.99" transform="translate(-225.49 97.29) rotate(-57.18)"/><rect class="cls-2" x="104.66" y="328.55" width="141.4" height="0.99" transform="translate(-225.54 97.92) rotate(-57.18)"/><rect class="cls-2" x="105.22" y="328.9" width="141.4" height="0.99" transform="translate(-225.58 98.55) rotate(-57.18)"/><rect class="cls-2" x="105.77" y="329.26" width="141.4" height="0.99" transform="translate(-225.63 99.15) rotate(-57.18)"/><rect class="cls-2" x="106.33" y="329.62" width="141.4" height="0.99" transform="translate(-225.68 99.78) rotate(-57.18)"/><rect class="cls-2" x="106.88" y="329.98" width="141.4" height="0.99" transform="matrix(0.54, -0.84, 0.84, 0.54, -225.72, 100.44)"/><rect class="cls-2" x="107.44" y="330.34" width="141.4" height="0.99" transform="matrix(0.54, -0.84, 0.84, 0.54, -225.77, 101.08)"/><rect class="cls-2" x="108" y="330.7" width="141.4" height="0.99" transform="translate(-225.82 101.68) rotate(-57.18)"/><rect class="cls-2" x="108.55" y="331.05" width="141.4" height="0.99" transform="matrix(0.54, -0.84, 0.84, 0.54, -225.86, 102.31)"/><rect class="cls-2" x="109.11" y="331.41" width="141.4" height="0.99" transform="translate(-225.9 102.88) rotate(-57.17)"/><rect class="cls-2" x="109.66" y="331.77" width="141.4" height="0.99" transform="translate(-225.96 103.6) rotate(-57.18)"/><rect class="cls-2" x="110.22" y="332.13" width="141.4" height="0.99" transform="translate(-226 104.2) rotate(-57.18)"/><rect class="cls-2" x="110.77" y="332.49" width="141.4" height="0.99" transform="translate(-226.05 104.83) rotate(-57.18)"/><rect class="cls-2" x="111.33" y="332.85" width="141.4" height="0.99" transform="translate(-226.1 105.49) rotate(-57.18)"/><rect class="cls-2" x="111.89" y="333.21" width="141.4" height="0.99" transform="matrix(0.54, -0.84, 0.84, 0.54, -226.14, 106.1)"/><rect class="cls-2" x="112.44" y="333.56" width="141.4" height="0.99" transform="translate(-226.19 106.73) rotate(-57.18)"/><rect class="cls-2" x="113" y="333.92" width="141.4" height="0.99" transform="translate(-226.24 107.35) rotate(-57.17)"/><rect class="cls-2" x="113.55" y="334.28" width="141.4" height="0.99" transform="translate(-226.28 108.01) rotate(-57.18)"/><rect class="cls-2" x="114.11" y="334.64" width="141.4" height="0.99" transform="translate(-226.33 108.62) rotate(-57.18)"/><rect class="cls-2" x="114.66" y="335" width="141.4" height="0.99" transform="translate(-226.37 109.17) rotate(-57.16)"/><rect class="cls-2" x="115.22" y="335.36" width="141.4" height="0.99" transform="translate(-226.43 109.91) rotate(-57.18)"/><rect class="cls-2" x="115.78" y="335.71" width="141.4" height="0.99" transform="matrix(0.54, -0.84, 0.84, 0.54, -226.47, 110.46)"/><rect class="cls-2" x="116.33" y="336.07" width="141.4" height="0.99" transform="translate(-226.52 111.15) rotate(-57.18)"/><rect class="cls-2" x="116.89" y="336.43" width="141.4" height="0.99" transform="translate(-226.56 111.78) rotate(-57.18)"/><rect class="cls-2" x="117.44" y="336.79" width="141.4" height="0.99" transform="translate(-226.61 112.39) rotate(-57.17)"/><rect class="cls-2" x="118" y="337.15" width="141.4" height="0.99" transform="translate(-226.66 113.06) rotate(-57.18)"/><rect class="cls-2" x="118.55" y="337.51" width="141.4" height="0.99" transform="translate(-226.71 113.69) rotate(-57.18)"/><rect class="cls-2" x="119.11" y="337.87" width="141.4" height="0.99" transform="translate(-226.75 114.29) rotate(-57.17)"/><rect class="cls-2" x="119.67" y="338.22" width="141.4" height="0.99" transform="translate(-226.8 114.93) rotate(-57.17)"/><rect class="cls-2" x="120.22" y="338.58" width="141.4" height="0.99" transform="translate(-226.85 115.59) rotate(-57.18)"/><rect class="cls-2" x="120.61" y="339.03" width="141.4" height="0.59" transform="matrix(0.54, -0.84, 0.84, 0.54, -226.87, 115.91)"/></g></svg>